<svg width="16" height="17" viewBox="0 0 16 17" fill="none" xmlns="http://www.w3.org/2000/svg">
<path d="M13.3334 6.45967C13.3264 6.39843 13.313 6.3381 13.2934 6.27967V6.21967C13.2613 6.15113 13.2185 6.08812 13.1667 6.03301V6.03301L9.16669 2.03301C9.11158 1.98115 9.04857 1.9384 8.98002 1.90634H8.92002C8.8523 1.8675 8.7775 1.84257 8.70002 1.83301H4.66669C4.13625 1.83301 3.62755 2.04372 3.25247 2.41879C2.8774 2.79387 2.66669 3.30257 2.66669 3.83301V13.1663C2.66669 13.6968 2.8774 14.2055 3.25247 14.5806C3.62755 14.9556 4.13625 15.1663 4.66669 15.1663H11.3334C11.8638 15.1663 12.3725 14.9556 12.7476 14.5806C13.1226 14.2055 13.3334 13.6968 13.3334 13.1663V6.49967C13.3334 6.49967 13.3334 6.49967 13.3334 6.45967ZM9.33335 4.10634L11.06 5.83301H10C9.82321 5.83301 9.65364 5.76277 9.52862 5.63775C9.40359 5.51272 9.33335 5.34315 9.33335 5.16634V4.10634ZM12 13.1663C12 13.3432 11.9298 13.5127 11.8048 13.6377C11.6797 13.7628 11.5102 13.833 11.3334 13.833H4.66669C4.48988 13.833 4.32031 13.7628 4.19528 13.6377C4.07026 13.5127 4.00002 13.3432 4.00002 13.1663V3.83301C4.00002 3.6562 4.07026 3.48663 4.19528 3.3616C4.32031 3.23658 4.48988 3.16634 4.66669 3.16634H8.00002V5.16634C8.00002 5.69677 8.21073 6.20548 8.58581 6.58056C8.96088 6.95563 9.46959 7.16634 10 7.16634H12V13.1663Z" fill="#2472FC"/>
</svg>
