<svg width="16" height="17" viewBox="0 0 16 17" fill="none" xmlns="http://www.w3.org/2000/svg">
<path d="M12.6667 4.16701H8.48001L8.26668 3.50034C8.12838 3.10916 7.87184 2.77068 7.53261 2.53178C7.19338 2.29289 6.78825 2.16541 6.37334 2.16701H3.33334C2.80291 2.16701 2.2942 2.37772 1.91913 2.75279C1.54406 3.12787 1.33334 3.63657 1.33334 4.16701V12.8337C1.33334 13.3641 1.54406 13.8728 1.91913 14.2479C2.2942 14.623 2.80291 14.8337 3.33334 14.8337H12.6667C13.1971 14.8337 13.7058 14.623 14.0809 14.2479C14.456 13.8728 14.6667 13.3641 14.6667 12.8337V6.16701C14.6667 5.63657 14.456 5.12787 14.0809 4.75279C13.7058 4.37772 13.1971 4.16701 12.6667 4.16701ZM13.3333 12.8337C13.3333 13.0105 13.2631 13.1801 13.1381 13.3051C13.0131 13.4301 12.8435 13.5003 12.6667 13.5003H3.33334C3.15653 13.5003 2.98696 13.4301 2.86194 13.3051C2.73691 13.1801 2.66668 13.0105 2.66668 12.8337V4.16701C2.66668 3.9902 2.73691 3.82063 2.86194 3.6956C2.98696 3.57058 3.15653 3.50034 3.33334 3.50034H6.37334C6.51311 3.49998 6.64945 3.54355 6.7631 3.6249C6.87674 3.70625 6.96195 3.82126 7.00668 3.95367L7.36668 5.04701C7.4114 5.17942 7.49661 5.29443 7.61026 5.37578C7.72391 5.45713 7.86025 5.5007 8.00001 5.50034H12.6667C12.8435 5.50034 13.0131 5.57058 13.1381 5.6956C13.2631 5.82063 13.3333 5.9902 13.3333 6.16701V12.8337Z" fill="#71757B"/>
</svg>
