<svg width="14" height="11" viewBox="0 0 14 11" fill="none" xmlns="http://www.w3.org/2000/svg">
<path d="M13 4.83288H10.3733C10.3269 4.82656 10.2798 4.82656 10.2333 4.83288H10.12C10.0851 4.85276 10.0517 4.87503 10.02 4.89954C9.98286 4.92405 9.94724 4.95077 9.91331 4.97954C9.89106 5.0068 9.87099 5.03578 9.85331 5.06621C9.82277 5.10821 9.79599 5.15282 9.77331 5.19954L8.70665 8.13954L5.92665 0.606209C5.87993 0.477509 5.79473 0.366311 5.68261 0.28773C5.57049 0.209148 5.43689 0.166992 5.29998 0.166992C5.16306 0.166992 5.02947 0.209148 4.91735 0.28773C4.80523 0.366311 4.72003 0.477509 4.67331 0.606209L3.13331 4.83288H0.99998C0.823169 4.83288 0.653599 4.90311 0.528575 5.02814C0.403551 5.15316 0.333313 5.32273 0.333313 5.49954C0.333313 5.67635 0.403551 5.84592 0.528575 5.97095C0.653599 6.09597 0.823169 6.16621 0.99998 6.16621H3.61331H3.76665H3.86665C3.90454 6.14797 3.94031 6.12561 3.97331 6.09954C4.01044 6.07503 4.04605 6.04832 4.07998 6.01954L4.13998 5.93288C4.17176 5.8917 4.19861 5.84696 4.21998 5.79954L5.29998 2.77954L8.07331 10.3929C8.1199 10.5217 8.20505 10.6331 8.31718 10.7118C8.42931 10.7905 8.56297 10.8328 8.69998 10.8329C8.83699 10.8328 8.97065 10.7905 9.08278 10.7118C9.19491 10.6331 9.28006 10.5217 9.32665 10.3929L10.86 6.16621H13C13.1768 6.16621 13.3464 6.09597 13.4714 5.97095C13.5964 5.84592 13.6666 5.67635 13.6666 5.49954C13.6666 5.32273 13.5964 5.15316 13.4714 5.02814C13.3464 4.90311 13.1768 4.83288 13 4.83288Z" fill="#71757B"/>
</svg>
