<svg width="16" height="17" viewBox="0 0 16 17" fill="none" xmlns="http://www.w3.org/2000/svg">
<path d="M5.33333 8.50065H6.66667C6.84348 8.50065 7.01305 8.43041 7.13807 8.30539C7.2631 8.18036 7.33333 8.0108 7.33333 7.83398C7.33333 7.65717 7.2631 7.4876 7.13807 7.36258C7.01305 7.23756 6.84348 7.16732 6.66667 7.16732H5.33333C5.15652 7.16732 4.98695 7.23756 4.86193 7.36258C4.7369 7.4876 4.66667 7.65717 4.66667 7.83398C4.66667 8.0108 4.7369 8.18036 4.86193 8.30539C4.98695 8.43041 5.15652 8.50065 5.33333 8.50065ZM11.3333 4.50065H8V3.16732H8.66667C8.84348 3.16732 9.01305 3.09708 9.13807 2.97206C9.2631 2.84703 9.33333 2.67746 9.33333 2.50065C9.33333 2.32384 9.2631 2.15427 9.13807 2.02925C9.01305 1.90422 8.84348 1.83398 8.66667 1.83398H7.33333C7.15652 1.83398 6.98695 1.90422 6.86193 2.02925C6.7369 2.15427 6.66667 2.32384 6.66667 2.50065V4.50065H4.66667C3.95942 4.50065 3.28115 4.7816 2.78105 5.2817C2.28095 5.7818 2 6.46007 2 7.16732V11.1673C2 11.3441 2.07024 11.5137 2.19526 11.6387C2.32029 11.7637 2.48986 11.834 2.66667 11.834H6.66667V14.5007C6.66667 14.6775 6.7369 14.847 6.86193 14.9721C6.98695 15.0971 7.15652 15.1673 7.33333 15.1673C7.51014 15.1673 7.67971 15.0971 7.80474 14.9721C7.92976 14.847 8 14.6775 8 14.5007V11.834H13.3333C13.5101 11.834 13.6797 11.7637 13.8047 11.6387C13.9298 11.5137 14 11.3441 14 11.1673V7.16732C14 6.46007 13.719 5.7818 13.219 5.2817C12.7189 4.7816 12.0406 4.50065 11.3333 4.50065ZM8.66667 7.16732V10.5007H3.33333V7.16732C3.33333 6.8137 3.47381 6.47456 3.72386 6.22451C3.97391 5.97446 4.31304 5.83398 4.66667 5.83398H9.04C8.79763 6.23665 8.66864 6.69734 8.66667 7.16732ZM12.6667 10.5007H10V7.16732C10 6.8137 10.1405 6.47456 10.3905 6.22451C10.6406 5.97446 10.9797 5.83398 11.3333 5.83398C11.687 5.83398 12.0261 5.97446 12.2761 6.22451C12.5262 6.47456 12.6667 6.8137 12.6667 7.16732V10.5007Z" fill="#71757B"/>
</svg>
