<?xml version="1.0" encoding="utf-8"?>
<!-- Generator: Adobe Illustrator 24.3.0, SVG Export Plug-In . SVG Version: 6.00 Build 0)  -->
<svg version="1.1" id="Layer_1" xmlns="http://www.w3.org/2000/svg" xmlns:xlink="http://www.w3.org/1999/xlink" x="0px" y="0px"
	 viewBox="0 0 339 100" style="enable-background:new 0 0 339 100;" xml:space="preserve">
<style type="text/css">
	.st0{display:none;enable-background:new    ;}
	.st1{font-family:'MyriadPro-Regular';}
	.st2{font-size:71.4794px;}
	.st3{fill:#C64A4A;}
	.st4{opacity:0.2;enable-background:new    ;}
	.st5{fill:#D14F4F;}
</style>
<text transform="matrix(1 0 0 1 106.5093 70.3203)" class="st0 st1 st2">Adifect</text>
<g>
	<path class="st3" d="M60.5,18.9l30,11.8L30.2,87.1c0,0-8.4,10.4-19.9,3.7c-11.4-6.7-3.4-20-3.4-20L60.5,18.9z"/>
	<path class="st4" d="M6.9,70.8c0,0,18-6.7,35,5.3l6.2-6L16.8,59.7L6.9,70.8z"/>
	<path class="st5" d="M6.9,70.8l30.1-57c0,0,4-8.4,10.8-8.3c6.7,0,10.3,8.5,10.3,8.5l34.1,66.8c0,0,3.5,8.4-1.5,11.2
		c-5,2.8-12.9,0.3-15.9-1.5S23.7,51.9,6.9,70.8z"/>
</g>
<g>
	<path class="st5" d="M121.9,57.9l-3.3,12.4h-10.9L122,22.2h13.8l14.6,48.1H139l-3.6-12.4H121.9z M133.7,49.8l-2.9-10.3
		c-0.8-3.1-1.6-6.3-2.3-9.3h-0.2c-0.7,3.1-1.3,6.3-2.1,9.3l-2.9,10.3H133.7L133.7,49.8z"/>
	<path class="st5" d="M189.4,19.6v40.3c0,4.3,0.1,7.8,0.3,10.4h-9.4l-0.4-5.1h-0.2c-1.1,1.9-2.5,3.4-4.4,4.4s-4,1.5-6.2,1.5
		c-4.1-0.1-7.5-1.7-10.2-5c-2.8-3.2-4.3-7.5-4.3-13c0.1-5.9,1.7-10.5,4.6-13.7c2.9-3.2,6.4-4.8,10.6-4.9c4.4,0.1,7.3,1.4,8.9,3.9
		h0.1v-19L189.4,19.6L189.4,19.6L189.4,19.6z M178.9,50.2c0-0.7,0-1.3-0.1-2c-0.3-1.6-0.9-2.8-2-3.8s-2.5-1.4-4.1-1.5
		c-2.4,0-4.2,1-5.4,2.9c-1.3,1.9-1.9,4.2-1.9,7c0,3,0.7,5.3,2,7c1.3,1.8,3,2.7,5.2,2.7c1.6,0,2.9-0.5,4-1.5s1.9-2.2,2.1-3.7
		c0.1-0.8,0.2-1.6,0.2-2.4V50.2L178.9,50.2L178.9,50.2z"/>
	<path class="st5" d="M204.5,30.8c-1.7,0-3.1-0.6-4.1-1.7c-1.1-1.1-1.7-2.4-1.7-4c0-1.7,0.6-3.1,1.7-4.2c1-1,2.5-1.6,4.3-1.6
		s3.2,0.5,4.3,1.6c1,1.1,1.6,2.5,1.6,4.2c0,1.6-0.5,3-1.5,4C207.9,30.2,206.4,30.8,204.5,30.8L204.5,30.8z M199.2,70.3V35.4h10.5
		v34.9H199.2z"/>
	<path class="st5" d="M220,70.3v-27h-4.5v-8h4.5V34c0-1.1,0.1-2.2,0.3-3.3c0.1-1.1,0.4-2.1,0.7-3.1c0.7-2,1.8-3.8,3.2-5.3
		c1.4-1.3,3-2.2,4.6-2.8c1.6-0.5,3.2-0.7,4.8-0.7c2.3,0.1,4.1,0.3,5.6,0.7l-0.4,8.4c-0.9-0.3-2-0.5-3.4-0.5c-1.7,0-2.9,0.6-3.7,1.8
		c-0.9,1.2-1.3,2.7-1.3,4.4v1.8h6.8v8h-6.7v27L220,70.3L220,70.3z"/>
	<path class="st5" d="M250.7,56.2c0.3,2.3,1.3,4,3.1,5c1.8,1.1,4,1.7,6.4,1.7c3.5,0,6.6-0.5,9.4-1.5l1.4,7.3
		c-3.5,1.4-7.6,2.2-12.3,2.2c-11.9-0.2-17.9-6.2-18.1-17.9c0-4.7,1.4-8.9,4.2-12.7s7.1-5.8,12.9-5.9c5.4,0.1,9.4,1.9,11.7,5.4
		c2.3,3.5,3.4,7.5,3.4,12c0,2-0.1,3.4-0.3,4.4H250.7z M263.1,48.9c0-0.7-0.1-1.4-0.2-2.3c-0.2-0.8-0.5-1.6-0.9-2.3s-1-1.4-1.7-1.9
		c-0.8-0.4-1.8-0.6-3-0.6c-2.2,0-3.8,0.9-4.9,2.4c-1,1.6-1.6,3.1-1.8,4.7L263.1,48.9L263.1,48.9L263.1,48.9z"/>
	<path class="st5" d="M305.7,69.5c-2.1,1-5.2,1.6-9.4,1.7c-11.7-0.3-17.7-6.2-18-17.9c0-5.3,1.7-9.7,5-13.1
		c3.3-3.5,8.1-5.3,14.4-5.4c3,0,5.6,0.4,8.1,1.4l-1.7,8c-0.6-0.3-1.4-0.5-2.3-0.7c-1-0.2-2.1-0.3-3.6-0.3c-2.8,0-5,0.9-6.6,2.7
		s-2.4,4.1-2.5,7.1c0,3.2,0.9,5.6,2.8,7.3c1.7,1.7,3.9,2.6,6.5,2.6c2.4,0,4.5-0.4,6-1.1L305.7,69.5z"/>
	<path class="st5" d="M325.5,25.9v9.5h7.6v8h-7.6v12.7c-0.1,4.2,1.3,6.2,4.1,6.2c1.3,0,2.3-0.1,3.1-0.3l0.1,8.2
		c-1.5,0.6-3.7,0.9-6.8,0.9c-3.4-0.1-6.1-1.1-8-3c-1.9-2.1-2.9-5.5-2.9-10.4V43.4h-4.5v-8h4.5v-6.6L325.5,25.9z"/>
</g>
</svg>
