<?xml version="1.0" encoding="utf-8"?>
<!-- Generator: Adobe Illustrator 16.0.0, SVG Export Plug-In . SVG Version: 6.00 Build 0)  -->
<!DOCTYPE svg PUBLIC "-//W3C//DTD SVG 1.1//EN" "http://www.w3.org/Graphics/SVG/1.1/DTD/svg11.dtd">
<svg version="1.1" id="Layer_1" xmlns="http://www.w3.org/2000/svg" xmlns:xlink="http://www.w3.org/1999/xlink" x="0px" y="0px"
	 width="339px" height="100px" viewBox="30.5 150.5 339 100" enable-background="new 30.5 150.5 339 100" xml:space="preserve">
<text transform="matrix(1 0 0 1 137.0093 220.8203)" display="none" enable-background="new    " font-family="'MyriadPro-Regular'" font-size="71.4794">Adifect</text>
<g>
	<g>
		<path fill="#C115FF" d="M91.037,169.37l30,11.778l-60.371,56.481c0,0-8.444,10.408-19.889,3.705c-11.444-6.704-3.371-20-3.371-20
			L91.037,169.37z"/>
		<path opacity="0.2" enable-background="new    " d="M37.407,221.297c0,0,18-6.667,35,5.333l6.222-6.037l-31.37-10.407
			L37.407,221.297z"/>
		<path fill="#2373FE" d="M37.407,221.297l30.074-57.038c0,0,4.037-8.444,10.778-8.333c6.704,0.111,10.296,8.556,10.296,8.556
			l34.148,66.778c0,0,3.481,8.443-1.519,11.222c-4.963,2.778-12.852,0.333-15.852-1.519S54.185,202.444,37.407,221.297z"/>
	</g>
	<g>
		<path d="M152.407,208.444l-3.296,12.407h-10.926l14.259-48.148h13.778l14.556,48.148h-11.371l-3.592-12.407H152.407z
			 M164.222,200.333l-2.926-10.259c-0.778-3.148-1.556-6.259-2.296-9.333h-0.185c-0.667,3.148-1.333,6.259-2.074,9.333
			l-2.852,10.259H164.222z"/>
		<path d="M219.926,170.074v40.296c0,4.296,0.074,7.778,0.26,10.444h-9.371l-0.407-5.074h-0.185
			c-1.074,1.926-2.52,3.371-4.371,4.371c-1.889,1-3.963,1.518-6.222,1.518c-4.111-0.073-7.519-1.703-10.186-4.963
			c-2.814-3.185-4.259-7.518-4.296-13c0.148-5.925,1.667-10.481,4.556-13.74c2.926-3.185,6.444-4.814,10.593-4.852
			c4.37,0.111,7.333,1.407,8.926,3.926h0.148v-18.963h10.555V170.074z M209.407,200.74c0-0.666-0.036-1.333-0.147-2.037
			c-0.26-1.556-0.926-2.815-2-3.778c-1.111-0.963-2.482-1.444-4.148-1.519c-2.408,0.037-4.223,1-5.408,2.852
			c-1.259,1.852-1.852,4.185-1.852,7.038c0,2.963,0.667,5.259,2,6.963c1.296,1.777,3.037,2.666,5.222,2.666
			c1.592,0,2.926-0.481,4.037-1.519c1.148-0.963,1.852-2.185,2.148-3.741c0.147-0.777,0.185-1.555,0.185-2.406v-4.52H209.407z"/>
		<path d="M235,181.296c-1.74,0-3.111-0.593-4.148-1.741c-1.111-1.111-1.666-2.444-1.666-4.037c0-1.704,0.555-3.111,1.666-4.222
			c1.037-1.037,2.482-1.556,4.26-1.556s3.186,0.519,4.259,1.556c1.037,1.111,1.593,2.519,1.593,4.222
			c0,1.593-0.519,2.963-1.519,4.037c-1.037,1.148-2.519,1.741-4.407,1.741H235z M229.703,220.814v-34.926h10.52v34.926H229.703z"/>
		<path d="M250.519,220.814v-27h-4.481v-7.963h4.481v-1.371c0-1.111,0.11-2.185,0.333-3.333c0.148-1.111,0.371-2.148,0.667-3.148
			c0.704-2.037,1.778-3.815,3.222-5.259c1.408-1.296,2.963-2.222,4.631-2.778c1.629-0.481,3.222-0.741,4.777-0.741
			c2.296,0.074,4.148,0.296,5.555,0.741l-0.406,8.371c-0.89-0.333-2.037-0.519-3.408-0.519c-1.703,0-2.926,0.592-3.666,1.778
			c-0.852,1.222-1.26,2.704-1.26,4.444v1.815h6.814v7.963h-6.74v27H250.519L250.519,220.814z"/>
		<path d="M281.186,206.74c0.259,2.297,1.296,3.963,3.111,5.037c1.814,1.148,3.963,1.704,6.443,1.704
			c3.52,0,6.631-0.519,9.371-1.519l1.37,7.334c-3.519,1.443-7.63,2.185-12.296,2.185c-11.926-0.222-17.926-6.185-18.074-17.852
			c0-4.667,1.407-8.926,4.186-12.741c2.777-3.814,7.073-5.777,12.889-5.926c5.444,0.111,9.37,1.926,11.703,5.444
			c2.297,3.481,3.408,7.481,3.408,12c-0.037,1.963-0.148,3.407-0.334,4.37L281.186,206.74z M293.593,199.37
			c0-0.667-0.074-1.444-0.186-2.333c-0.185-0.815-0.481-1.593-0.926-2.296c-0.407-0.741-1-1.371-1.741-1.889
			c-0.777-0.408-1.814-0.63-3.037-0.63c-2.222,0.037-3.814,0.852-4.852,2.444c-1,1.556-1.592,3.111-1.777,4.741h12.519V199.37z"/>
		<path d="M336.223,219.963c-2.074,1.037-5.223,1.593-9.408,1.667c-11.74-0.26-17.74-6.223-17.963-17.927
			c0-5.296,1.667-9.703,4.963-13.147c3.26-3.519,8.074-5.333,14.408-5.444c2.963,0,5.629,0.444,8.073,1.37l-1.703,8.037
			c-0.593-0.259-1.37-0.519-2.334-0.741c-0.963-0.185-2.147-0.259-3.555-0.259c-2.815,0.037-5,0.926-6.556,2.704
			c-1.63,1.778-2.444,4.148-2.519,7.075c0,3.185,0.926,5.629,2.777,7.296c1.704,1.741,3.889,2.593,6.481,2.593
			c2.444,0,4.481-0.371,6.037-1.148L336.223,219.963z"/>
		<path d="M356,176.37v9.519h7.556v7.963H356v12.741c-0.111,4.185,1.296,6.222,4.148,6.185c1.296,0,2.333-0.111,3.111-0.296
			l0.073,8.222c-1.481,0.557-3.74,0.89-6.814,0.927c-3.444-0.074-6.111-1.074-7.963-3c-1.926-2.074-2.926-5.519-2.926-10.37v-14.408
			h-4.519v-7.963h4.519v-6.592L356,176.37z"/>
	</g>
</g>
</svg>
