<?xml version="1.0" encoding="utf-8"?>
<!-- Generator: Adobe Illustrator 16.0.0, SVG Export Plug-In . SVG Version: 6.00 Build 0)  -->
<!DOCTYPE svg PUBLIC "-//W3C//DTD SVG 1.1//EN" "http://www.w3.org/Graphics/SVG/1.1/DTD/svg11.dtd">
<svg version="1.1" xmlns="http://www.w3.org/2000/svg" xmlns:xlink="http://www.w3.org/1999/xlink" x="0px" y="0px" width="500px"
	 height="500px" viewBox="0 0 500 500" enable-background="new 0 0 500 500" xml:space="preserve">
<g id="Background_Complete">
</g>
<g id="Background_Simple" display="none">
	<g display="inline">
		<g>
			<path fill="#407BFF" d="M432.343,292.025c-1.332-16.633-19.725-39.953-38.416-46.412c-23.868-8.246-38.973,4.819-60.85,2.424
				c-59.076-6.467-74.824-48.484-98.251-86.566C182.908,77.072,39.28,113.196,56.223,223.368
				c10.185,66.225,79.9,166.647,184.114,100.771c45.043-28.475,31.343-44.956,79.126-19.426
				C338.319,314.787,438.375,367.359,432.343,292.025z"/>
		</g>
		<path opacity="0.9" fill="#FFFFFF" d="M432.343,292.025c-1.332-16.633-19.725-39.953-38.416-46.412
			c-23.868-8.246-38.973,4.819-60.85,2.424c-59.076-6.467-74.824-48.484-98.251-86.566C182.908,77.072,39.28,113.196,56.223,223.368
			c10.185,66.225,79.9,166.647,184.114,100.771c45.043-28.475,31.343-44.956,79.126-19.426
			C338.319,314.787,438.375,367.359,432.343,292.025z"/>
	</g>
</g>
<g id="Shadow_1_">
</g>
<g id="Character_1">
</g>
<g id="Character_2">
	<g>
		<g>
			<g>
				<rect y="382.398" fill="#EBEBEB" width="500" height="0.25"/>
				<path fill="#EBEBEB" d="M237.014,337.8H43.915c-3.147,0-5.708-2.561-5.708-5.708V60.66c0-3.146,2.561-5.707,5.708-5.707h193.099
					c3.146,0,5.707,2.561,5.707,5.707v271.432C242.721,335.239,240.16,337.8,237.014,337.8z M43.915,55.203
					c-3.009,0-5.458,2.447-5.458,5.457v271.432c0,3.01,2.449,5.458,5.458,5.458h193.099c3.009,0,5.457-2.448,5.457-5.458V60.66
					c0-3.01-2.448-5.457-5.457-5.457H43.915z"/>
				<path fill="#EBEBEB" d="M453.311,337.8H260.212c-3.146,0-5.707-2.561-5.707-5.708V60.66c0-3.146,2.561-5.707,5.707-5.707
					h193.099c3.147,0,5.708,2.561,5.708,5.707v271.432C459.019,335.239,456.458,337.8,453.311,337.8z M260.212,55.203
					c-3.009,0-5.457,2.447-5.457,5.457v271.432c0,3.01,2.448,5.458,5.457,5.458h193.099c3.01,0,5.458-2.448,5.458-5.458V60.66
					c0-3.01-2.448-5.457-5.458-5.457H260.212z"/>
			</g>
			<g>
				<rect x="418.333" y="391.922" fill="#EBEBEB" width="31.568" height="0.25"/>
				<rect x="301.925" y="389.209" fill="#EBEBEB" width="33.408" height="0.25"/>
				<rect x="396.586" y="401.209" fill="#EBEBEB" width="62.433" height="0.25"/>
				<rect x="52.459" y="399.527" fill="#EBEBEB" width="19.234" height="0.25"/>
				<rect x="80.597" y="399.527" fill="#EBEBEB" width="30.292" height="0.25"/>
				<rect x="189.577" y="395.306" fill="#EBEBEB" width="54.556" height="0.25"/>
			</g>
		</g>
		<g>
			<g>
				<path fill="#FFFFFF" d="M335.374,113.211H112.336c-4.631,0-8.42-3.789-8.42-8.42v-40.68c0-4.631,3.789-8.42,8.42-8.42h223.037
					c4.631,0,8.42,3.789,8.42,8.42v40.68C343.793,109.422,340.004,113.211,335.374,113.211z"/>
				<path fill="#4772F9" d="M335.374,113.949H112.336c-5.05,0-9.158-4.108-9.158-9.158v-40.68c0-5.05,4.108-9.158,9.158-9.158
					h223.037c5.05,0,9.158,4.108,9.158,9.158v40.68C344.532,109.841,340.423,113.949,335.374,113.949z M112.336,56.43
					c-4.235,0-7.682,3.446-7.682,7.682v40.68c0,4.235,3.446,7.682,7.682,7.682h223.037c4.235,0,7.682-3.446,7.682-7.682v-40.68
					c0-4.235-3.446-7.682-7.682-7.682H112.336z"/>
			</g>
			<g opacity="0.4">
				<g>
					<path fill="#263238" d="M123.636,94.45V72.808h8.163c1.438,0,2.534,0.069,3.293,0.207c1.063,0.177,1.953,0.514,2.672,1.011
						c0.718,0.498,1.296,1.193,1.734,2.089c0.438,0.896,0.657,1.88,0.657,2.953c0,1.841-0.586,3.397-1.757,4.672
						c-1.172,1.275-3.287,1.912-6.349,1.912H126.5v8.799H123.636z M126.5,83.098h5.596c1.85,0,3.164-0.345,3.941-1.033
						c0.777-0.689,1.166-1.658,1.166-2.908c0-0.906-0.229-1.681-0.687-2.325c-0.457-0.645-1.061-1.07-1.809-1.277
						c-0.481-0.128-1.372-0.192-2.672-0.192H126.5V83.098z"/>
					<path fill="#263238" d="M153.693,92.517c-0.984,0.836-1.932,1.427-2.842,1.771c-0.91,0.344-1.888,0.517-2.931,0.517
						c-1.723,0-3.046-0.421-3.971-1.263c-0.926-0.841-1.388-1.916-1.388-3.226c0-0.768,0.174-1.469,0.524-2.104
						s0.808-1.145,1.373-1.528c0.566-0.384,1.203-0.674,1.912-0.871c0.521-0.138,1.309-0.271,2.362-0.398
						c2.146-0.256,3.725-0.561,4.738-0.915c0.01-0.364,0.015-0.596,0.015-0.694c0-1.082-0.251-1.845-0.753-2.288
						c-0.679-0.6-1.688-0.9-3.026-0.9c-1.25,0-2.172,0.22-2.768,0.657s-1.036,1.213-1.321,2.325l-2.599-0.354
						c0.236-1.112,0.625-2.01,1.167-2.694c0.541-0.684,1.323-1.211,2.347-1.579c1.023-0.369,2.21-0.554,3.558-0.554
						c1.339,0,2.427,0.157,3.262,0.472c0.837,0.315,1.453,0.712,1.846,1.188c0.394,0.478,0.669,1.081,0.827,1.809
						c0.088,0.453,0.133,1.27,0.133,2.451v3.543c0,2.471,0.057,4.032,0.17,4.688c0.112,0.654,0.337,1.281,0.671,1.882h-2.775
						C153.949,93.899,153.772,93.255,153.693,92.517z M153.471,86.582c-0.964,0.394-2.411,0.728-4.34,1.003
						c-1.093,0.158-1.865,0.335-2.319,0.532c-0.452,0.196-0.801,0.484-1.047,0.863s-0.37,0.8-0.37,1.263
						c0,0.708,0.269,1.299,0.805,1.771c0.536,0.472,1.321,0.708,2.354,0.708c1.023,0,1.935-0.224,2.731-0.672
						c0.797-0.447,1.383-1.06,1.757-1.838c0.285-0.6,0.428-1.485,0.428-2.657V86.582z"/>
					<path fill="#263238" d="M159.791,95.749l2.583,0.384c0.108,0.798,0.409,1.378,0.901,1.742c0.659,0.492,1.56,0.738,2.701,0.738
						c1.23,0,2.18-0.246,2.85-0.738c0.669-0.492,1.122-1.181,1.358-2.066c0.138-0.542,0.201-1.678,0.191-3.41
						c-1.161,1.368-2.608,2.052-4.34,2.052c-2.156,0-3.824-0.777-5.005-2.333c-1.182-1.555-1.771-3.42-1.771-5.594
						c0-1.497,0.271-2.877,0.812-4.142s1.326-2.242,2.354-2.931s2.237-1.033,3.625-1.033c1.85,0,3.375,0.748,4.576,2.243v-1.89h2.45
						v13.553c0,2.44-0.248,4.171-0.745,5.189s-1.284,1.823-2.362,2.414c-1.077,0.59-2.403,0.886-3.979,0.886
						c-1.87,0-3.381-0.421-4.532-1.263S159.751,97.442,159.791,95.749z M161.99,86.331c0,2.057,0.409,3.558,1.226,4.502
						c0.817,0.945,1.841,1.418,3.071,1.418c1.22,0,2.243-0.471,3.07-1.41s1.24-2.414,1.24-4.422c0-1.919-0.426-3.366-1.277-4.34
						c-0.852-0.975-1.877-1.462-3.078-1.462c-1.181,0-2.185,0.479-3.012,1.439C162.404,83.017,161.99,84.44,161.99,86.331z"/>
					<path fill="#263238" d="M187.825,89.401l2.746,0.34c-0.434,1.604-1.235,2.849-2.406,3.734
						c-1.172,0.886-2.667,1.329-4.488,1.329c-2.293,0-4.111-0.706-5.455-2.119c-1.343-1.412-2.015-3.393-2.015-5.941
						c0-2.637,0.679-4.685,2.037-6.142c1.358-1.456,3.12-2.185,5.285-2.185c2.097,0,3.809,0.713,5.138,2.141
						c1.328,1.427,1.993,3.435,1.993,6.023c0,0.157-0.006,0.394-0.016,0.708h-11.691c0.098,1.723,0.585,3.041,1.461,3.957
						c0.876,0.915,1.969,1.372,3.277,1.372c0.975,0,1.807-0.255,2.495-0.768C186.875,91.34,187.421,90.523,187.825,89.401z
						 M179.1,85.105h8.753c-0.118-1.319-0.452-2.308-1.003-2.968c-0.847-1.023-1.943-1.535-3.292-1.535
						c-1.221,0-2.247,0.408-3.079,1.226C179.648,82.645,179.188,83.737,179.1,85.105z"/>
					<path fill="#263238" d="M202.308,94.45V78.771h2.392v2.229c1.151-1.722,2.814-2.583,4.989-2.583
						c0.945,0,1.813,0.17,2.606,0.509c0.792,0.34,1.385,0.785,1.778,1.336c0.394,0.552,0.67,1.206,0.827,1.964
						c0.098,0.492,0.147,1.354,0.147,2.583v9.641h-2.657v-9.537c0-1.082-0.104-1.892-0.311-2.429
						c-0.206-0.536-0.573-0.964-1.1-1.284c-0.526-0.319-1.144-0.479-1.853-0.479c-1.132,0-2.109,0.359-2.931,1.078
						c-0.821,0.718-1.232,2.081-1.232,4.089v8.563H202.308z"/>
					<path fill="#263238" d="M218.133,86.611c0-2.903,0.807-5.054,2.421-6.452c1.349-1.161,2.992-1.741,4.931-1.741
						c2.155,0,3.917,0.706,5.285,2.118c1.369,1.412,2.053,3.363,2.053,5.854c0,2.018-0.303,3.604-0.908,4.761
						c-0.605,1.157-1.486,2.055-2.643,2.694s-2.419,0.96-3.787,0.96c-2.194,0-3.969-0.704-5.321-2.111
						C218.81,91.286,218.133,89.259,218.133,86.611z M220.865,86.611c0,2.008,0.438,3.511,1.313,4.51s1.979,1.498,3.307,1.498
						c1.319,0,2.416-0.502,3.293-1.506c0.875-1.003,1.313-2.533,1.313-4.59c0-1.939-0.44-3.408-1.322-4.407
						c-0.88-0.999-1.975-1.499-3.285-1.499c-1.328,0-2.431,0.497-3.307,1.491S220.865,84.604,220.865,86.611z"/>
					<path fill="#263238" d="M241.74,92.073l0.384,2.348c-0.748,0.157-1.417,0.236-2.008,0.236c-0.965,0-1.713-0.153-2.244-0.458
						s-0.905-0.706-1.122-1.203s-0.324-1.543-0.324-3.137v-9.021h-1.949v-2.067h1.949V74.89l2.643-1.595v5.477h2.672v2.067h-2.672
						v9.168c0,0.758,0.046,1.245,0.14,1.461c0.094,0.217,0.246,0.39,0.458,0.517c0.212,0.129,0.514,0.192,0.908,0.192
						C240.869,92.177,241.257,92.143,241.74,92.073z"/>
					<path fill="#263238" d="M253.373,94.45V80.839h-2.348v-2.067h2.348v-1.668c0-1.053,0.094-1.835,0.28-2.347
						c0.256-0.689,0.706-1.248,1.351-1.676c0.645-0.429,1.548-0.643,2.709-0.643c0.748,0,1.575,0.089,2.48,0.266l-0.398,2.319
						c-0.552-0.1-1.073-0.148-1.566-0.148c-0.806,0-1.377,0.172-1.711,0.517c-0.335,0.345-0.502,0.988-0.502,1.934v1.446h3.056
						v2.067h-3.056V94.45H253.373z"/>
					<path fill="#263238" d="M260.149,86.611c0-2.903,0.807-5.054,2.421-6.452c1.349-1.161,2.992-1.741,4.931-1.741
						c2.155,0,3.917,0.706,5.285,2.118s2.053,3.363,2.053,5.854c0,2.018-0.303,3.604-0.908,4.761
						c-0.605,1.157-1.486,2.055-2.643,2.694s-2.419,0.96-3.787,0.96c-2.194,0-3.969-0.704-5.321-2.111
						C260.826,91.286,260.149,89.259,260.149,86.611z M262.88,86.611c0,2.008,0.438,3.511,1.313,4.51s1.979,1.498,3.307,1.498
						c1.319,0,2.416-0.502,3.293-1.506c0.875-1.003,1.313-2.533,1.313-4.59c0-1.939-0.44-3.408-1.321-4.407
						s-1.976-1.499-3.285-1.499c-1.328,0-2.431,0.497-3.307,1.491S262.88,84.604,262.88,86.611z"/>
					<path fill="#263238" d="M288.227,94.45v-2.302c-1.22,1.771-2.878,2.656-4.975,2.656c-0.926,0-1.789-0.178-2.591-0.531
						c-0.803-0.354-1.397-0.8-1.786-1.337c-0.39-0.536-0.662-1.192-0.819-1.971c-0.108-0.521-0.163-1.348-0.163-2.479v-9.715h2.657
						v8.696c0,1.388,0.055,2.322,0.163,2.806c0.167,0.698,0.521,1.246,1.063,1.645c0.541,0.399,1.211,0.599,2.008,0.599
						s1.545-0.204,2.244-0.613c0.698-0.408,1.193-0.964,1.483-1.668c0.29-0.703,0.436-1.725,0.436-3.063v-8.4h2.657V94.45H288.227z"
						/>
					<path fill="#263238" d="M294.768,94.45V78.771h2.392v2.229c1.151-1.722,2.814-2.583,4.989-2.583
						c0.945,0,1.813,0.17,2.606,0.509c0.792,0.34,1.385,0.785,1.778,1.336c0.394,0.552,0.67,1.206,0.827,1.964
						c0.098,0.492,0.147,1.354,0.147,2.583v9.641h-2.657v-9.537c0-1.082-0.104-1.892-0.311-2.429
						c-0.206-0.536-0.573-0.964-1.1-1.284c-0.526-0.319-1.144-0.479-1.853-0.479c-1.132,0-2.108,0.359-2.931,1.078
						c-0.821,0.718-1.232,2.081-1.232,4.089v8.563H294.768z"/>
					<path fill="#263238" d="M321.754,94.45v-1.979c-0.994,1.556-2.456,2.333-4.385,2.333c-1.25,0-2.399-0.345-3.447-1.033
						c-1.048-0.689-1.861-1.651-2.436-2.887c-0.576-1.234-0.864-2.654-0.864-4.259c0-1.565,0.261-2.984,0.782-4.259
						c0.521-1.275,1.305-2.252,2.348-2.931c1.043-0.68,2.209-1.019,3.499-1.019c0.944,0,1.786,0.199,2.524,0.598
						s1.338,0.918,1.801,1.558v-7.766h2.643V94.45H321.754z M313.354,86.626c0,2.008,0.423,3.509,1.27,4.503s1.846,1.49,2.997,1.49
						c1.161,0,2.147-0.475,2.96-1.424c0.812-0.95,1.218-2.399,1.218-4.348c0-2.146-0.413-3.721-1.24-4.725
						c-0.826-1.004-1.846-1.506-3.056-1.506c-1.182,0-2.168,0.482-2.96,1.447C313.75,83.028,313.354,84.55,313.354,86.626z"/>
				</g>
			</g>
		</g>
		<ellipse id="_x3C_Path_x3E__366_" fill="#F5F5F5" cx="250" cy="416.238" rx="193.889" ry="11.323"/>
		<g>
			<path fill="#263238" d="M137.822,145.884c-8.061,8.103,5.643,20.697-3.411,26.472c7.385,3.715,33.289,8.424,39.961-6.162
				c-4.889-3.799-1.494-13.146-6.007-22.109C161.664,130.777,129.761,136.666,137.822,145.884z"/>
			<path fill="#263238" d="M138.552,145.67c-2.514-0.422-10.988,3.803-4.685,15.133c5.093,9.153,0.852,9.809,0.852,9.809
				s5.03,0.141,2.029-6.669C133.544,156.67,132.048,149.127,138.552,145.67z"/>
			<path fill="#FF8B7B" d="M197.985,217.614c-0.625-1.194-2.099-1.656-3.294-1.032l-0.595,0.313c-0.187,0.097-0.549,0.338-0.841,0.5
				c-0.305,0.186-0.621,0.361-0.942,0.523c-0.639,0.329-1.302,0.596-1.954,0.826c-1.308,0.46-2.61,0.703-3.846,0.724
				c-1.239,0.03-2.412-0.194-3.55-0.57c-0.713-0.251-1.41-0.585-2.096-0.977c-0.857-1.901-1.675-3.821-2.38-5.798
				c-0.85-2.314-1.596-4.677-2.253-7.066c-0.656-2.389-1.24-4.804-1.723-7.234c-0.25-1.213-0.472-2.43-0.67-3.643l-0.267-1.812
				c-0.091-0.582-0.171-1.234-0.225-1.694l-0.023-0.199c-0.314-2.653-2.673-4.605-5.359-4.393c-2.752,0.219-4.805,2.627-4.586,5.379
				c0.067,0.845,0.132,1.495,0.219,2.212c0.08,0.704,0.194,1.39,0.294,2.081c0.221,1.375,0.467,2.738,0.744,4.094
				c0.564,2.707,1.256,5.384,2.1,8.02c0.396,1.323,0.877,2.625,1.328,3.934c0.516,1.289,0.987,2.59,1.561,3.859
				c1.059,2.567,2.366,5.043,3.714,7.486l0.122,0.223c0.346,0.63,0.871,1.172,1.55,1.541c1.834,1,3.89,1.752,6.052,2.144
				c2.167,0.389,4.438,0.321,6.555-0.144c2.118-0.492,4.067-1.365,5.752-2.5c0.846-0.564,1.617-1.21,2.343-1.887
				c0.362-0.34,0.711-0.691,1.047-1.061c0.348-0.393,0.612-0.725,1.007-1.245C198.319,219.488,198.437,218.478,197.985,217.614z"/>
			<path fill="#FF8B7B" d="M204.647,208.254l-0.288-0.008c-1.947-0.047-3.803,0.82-5.017,2.344l-4.829,6.06l-0.041,4.142
				c3.876,1.54,8.8-2.615,8.8-2.615l2.489-0.622c1.735-0.434,2.859-2.11,2.604-3.88l-0.353-2.436
				C207.77,209.556,206.347,208.294,204.647,208.254z"/>
			<g>
				<g>
					<path fill="#407BFF" d="M173.228,184.879c3.23,3.318,3.436,13.232,3.436,13.232l-12.928,10.395c0,0-5.301-14.691-2.369-19.883
						C163.856,184.216,169.113,180.652,173.228,184.879z"/>
				</g>
				<g opacity="0.2">
					<path fill="#FFFFFF" d="M173.228,184.879c3.23,3.318,3.436,13.232,3.436,13.232l-12.928,10.395c0,0-5.301-14.691-2.369-19.883
						C163.856,184.216,169.113,180.652,173.228,184.879z"/>
				</g>
			</g>
			<g>
				<polygon fill="#FF8B7B" points="151.852,407.665 158.988,408.453 159.966,389.05 152.831,388.262 				"/>
				<path fill="#263238" d="M160.162,403.785h-8.392c-0.365,0-0.642,0.254-0.667,0.61l-0.559,7.936
					c-0.058,0.823,0.703,1.58,1.548,1.588c3.541,0.032,3.576,0.017,7.986,0.017c2.714,0,8.161,0,11.908,0
					c3.665,0,3.674-3.705,2.089-4.041c-7.107-1.505-9.878-3.58-12.381-5.561C161.244,403.978,160.696,403.785,160.162,403.785z"/>
				<polygon opacity="0.2" points="159.965,389.055 159.462,399.057 152.283,399.065 152.826,388.267 				"/>
				<path fill="#263238" d="M163.82,234.268c0,0,6.17,51.732,6.17,74.732c-4.869,32-8.987,88.158-8.987,88.158l-9.885-0.255
					c0,0-4.49-61.167-0.325-87.569c-5.333-23.668-11.914-78.265-11.914-78.265L163.82,234.268z"/>
				<path opacity="0.2" d="M144.774,248.67c-1.25,0.55-2.38,1.15-3.42,1.78c1.36,10.21,3.15,23.06,5.05,34.92
					C149.645,275.609,147.895,254.15,144.774,248.67z"/>
				<g>
					<polygon fill="#FF8B7B" points="74.533,389.656 80.419,393.768 90.577,377.207 84.691,373.096 					"/>
					<path fill="#263238" d="M81.911,391.6l-5.016-6.729c-0.218-0.292-0.587-0.363-0.888-0.17l-6.696,4.295
						c-0.694,0.446-0.847,1.508-0.347,2.191c2.091,2.857,2.124,2.876,4.761,6.412c1.622,2.175,4.878,6.541,7.119,9.546
						c2.191,2.938,5.167,0.731,4.488-0.741c-3.042-6.597-3.035-10.059-2.944-13.248C82.404,392.581,82.23,392.027,81.911,391.6z"/>
					<polygon opacity="0.2" points="90.573,377.211 85.338,385.748 79.033,382.315 84.685,373.098 					"/>
					<path fill="#A41CF9" d="M110.663,396.604c-5.112,0-15.752,0-15.931-7.521c-0.142-5.902,7.16-8.348,13.455-8.648
						c2.941-0.152,5.427,2.126,5.568,5.061c0.006,0.134,0.008,0.267,0.004,0.398c7.138-0.339,11.76-1.898,13.448-4.561
						c3.812-6.008-3.484-21.492-10.54-36.466c-8.295-17.605-17.696-37.559-17.881-56.665c-0.028-2.938,2.331-5.344,5.27-5.372
						c0.017,0,0.034,0,0.052,0c2.914,0,5.291,2.349,5.319,5.269c0.161,16.779,9.036,35.615,16.866,52.233
						c9.038,19.184,16.845,35.751,9.899,46.7C132.108,393.473,123.757,396.604,110.663,396.604z"/>
					<path fill="#263238" d="M155.909,233.253c0,0-17.058,59.118-25.393,80.554c-16.134,28.061-42.915,71.014-42.915,71.014
						l-8.554-4.961c0,0,20.006-49.599,33.456-72.698c3.605-23.991,17.257-77.262,17.257-77.262L155.909,233.253z"/>
					<path fill="#407BFF" d="M83.445,396.426c0.463,0.623,0.977,1.109,1.489,1.214c0.35,0.071,0.673-0.038,0.958-0.326
						c0.213-0.214,0.238-0.453,0.22-0.616c-0.126-1.199-3.221-2.756-3.84-3.056c-0.071-0.034-0.154-0.009-0.206,0.063
						s-0.062,0.176-0.025,0.257C82.367,394.669,82.867,395.651,83.445,396.426z M85.576,396.389
						c0.103,0.139,0.166,0.267,0.178,0.381c0.006,0.055,0,0.122-0.084,0.206c-0.202,0.202-0.418,0.276-0.663,0.228
						c-0.654-0.133-1.522-1.199-2.371-2.892C83.738,394.892,85.095,395.744,85.576,396.389z"/>
					<path fill="#407BFF" d="M82.064,394c0.015,0.021,0.034,0.038,0.055,0.051c0.992,0.555,3.6,0.99,4.166,0.166
						c0.124-0.18,0.216-0.491-0.05-0.951c-1.032-1.78-3.996,0.303-4.122,0.393c-0.059,0.041-0.096,0.12-0.095,0.202
						C82.02,393.914,82.037,393.963,82.064,394z M85.861,393.415c0.027,0.036,0.052,0.073,0.076,0.114
						c0.108,0.188,0.134,0.326,0.075,0.411c-0.329,0.478-2.254,0.313-3.375-0.128C83.39,393.357,85.144,392.453,85.861,393.415z"/>
				</g>
				<path fill="#407BFF" d="M164.949,405.441c0.775,0,1.473-0.119,1.863-0.469c0.266-0.237,0.371-0.563,0.312-0.963
					c-0.044-0.299-0.222-0.461-0.363-0.545c-1.037-0.615-4.134,0.936-4.745,1.252c-0.07,0.036-0.099,0.118-0.072,0.203
					c0.027,0.086,0.104,0.154,0.191,0.174C162.896,405.255,163.983,405.441,164.949,405.441z M166.193,403.711
					c0.172,0,0.312,0.026,0.411,0.086c0.047,0.027,0.098,0.072,0.115,0.189c0.042,0.283-0.028,0.501-0.214,0.668
					c-0.497,0.444-1.871,0.503-3.734,0.172C163.894,404.289,165.388,403.711,166.193,403.711z"/>
				<path fill="#407BFF" d="M162.179,405.098c0.026,0,0.05-0.004,0.073-0.014c1.038-0.464,2.946-2.295,2.625-3.24
					c-0.07-0.207-0.265-0.467-0.794-0.529c-2.043-0.236-2.145,3.385-2.149,3.539c-0.002,0.072,0.039,0.148,0.106,0.197
					C162.083,405.082,162.132,405.098,162.179,405.098z M163.979,401.704c0.044,0,0.09,0.003,0.137,0.009
					c0.215,0.024,0.341,0.087,0.375,0.185c0.187,0.549-1.096,1.995-2.12,2.629C162.456,403.651,162.779,401.704,163.979,401.704z"/>
			</g>
			<g>
				<g>
					<path fill="#407BFF" d="M129.761,229.899c6.576,0.843,20.547,2.629,34.057,4.363c7.688-25.862,10.209-38.349,10.896-44.367
						c0.356-3.121-1.527-6.063-4.524-7.007c-2.036-0.643-4.574-1.398-7.136-2.053c-0.876-0.226-1.761-0.438-2.631-0.631
						c-4.987-1.107-9.703-1.531-15.464-1.99c-0.768-0.064-1.532-0.107-2.296-0.148c-1.509-0.072-2.984-0.1-4.36-0.101
						c-4.32-0.001-7.704,3.694-7.327,7.997c0.264,3.021,0.477,5.789,0.637,8.348c0.382,5.98,0.498,10.803,0.411,15.007
						C131.845,217.139,130.966,222.829,129.761,229.899z"/>
				</g>
				<g opacity="0.3">
					<path fill="#FFFFFF" d="M129.761,229.899c6.576,0.843,20.547,2.629,34.057,4.363c7.688-25.862,10.209-38.349,10.896-44.367
						c0.356-3.121-1.527-6.063-4.524-7.007c-2.036-0.643-4.574-1.398-7.136-2.053c-0.876-0.226-1.761-0.438-2.631-0.631
						c-4.987-1.107-9.703-1.531-15.464-1.99c-0.768-0.064-1.532-0.107-2.296-0.148c-1.509-0.072-2.984-0.1-4.36-0.101
						c-4.32-0.001-7.704,3.694-7.327,7.997c0.264,3.021,0.477,5.789,0.637,8.348c0.382,5.98,0.498,10.803,0.411,15.007
						C131.845,217.139,130.966,222.829,129.761,229.899z"/>
				</g>
			</g>
			<path opacity="0.3" fill="#407BFF" d="M132.022,209.317c4.502-5.817,6.124-12.474,4.669-16.151l-5.08,1.145
				C131.993,200.291,132.109,205.113,132.022,209.317z"/>
			<path fill="#FFFFFF" d="M163.054,180.84c-0.88-0.23-1.76-0.439-2.63-0.64c-4.99-1.101-9.71-1.53-15.47-1.99
				c-0.77-0.06-1.53-0.101-2.29-0.14c-0.45-0.021-0.89-0.041-1.33-0.061l1.05,1.75c0.14,0.24,3.54,5.801,12.04,11.78l1.81,1.26
				l1.74-1.33c4.85-3.71,5.48-8.36,5.48-10.53C163.324,180.91,163.184,180.87,163.054,180.84z"/>
			<path fill="#FF8B7B" d="M148.706,167.922c-0.317,4.209-1.309,8.498-3.753,10.295c0,0,3.117,5.189,11.2,10.866
				c5.061-3.87,4.265-8.882,4.265-8.882c-5.379-2.037-5.014-5.73-2.729-11.679l-4.199-2.261
				C151.859,164.463,148.888,165.501,148.706,167.922z"/>
			<path opacity="0.2" d="M153.486,166.258c-1.536-1.695-4.277-0.865-4.724,1.281c1.72,3.154,3.928,5.803,7.345,7.514
				c-0.046-1.781,0.583-3.947,1.577-6.533L153.486,166.258z"/>
			<path fill="#FF8B7B" d="M142.172,154.721c2.087,8.128,2.797,11.613,7.763,15.035c7.47,5.148,16.996,0.807,17.379-7.78
				c0.345-7.729-3.126-19.722-11.807-21.446C146.957,138.83,140.085,146.594,142.172,154.721z"/>
			<path fill="#263238" d="M162.857,142.166c-8.333,7.334-16.964,9.376-16.964,9.376s6.203,13.208-5.417,9.874
				c-3.369-11.25,0.048-17.082,2.964-19.832C152.691,138.584,159.191,137.584,162.857,142.166z"/>
			<path fill="#FF8B7B" d="M141.779,162.73c0.715,1.585,2.097,2.692,3.442,3.176c2.023,0.729,3.191-1.044,2.759-3.035
				c-0.389-1.793-1.91-4.331-4.004-4.201C141.914,158.799,140.961,160.917,141.779,162.73z"/>
			<path fill="#407BFF" d="M129.507,227.836l-1.927,2.852c-0.149,0.221,0.1,0.498,0.494,0.549l35.719,4.58
				c0.307,0.039,0.581-0.078,0.625-0.269l0.698-3.009c0.048-0.209-0.195-0.422-0.531-0.465l-34.49-4.423
				C129.841,227.619,129.604,227.693,129.507,227.836z"/>
			<path fill="#263238" d="M133.645,232.287l-0.924-0.119c-0.184-0.023-0.312-0.137-0.284-0.251l0.941-3.905
				c0.027-0.114,0.2-0.188,0.384-0.165l0.923,0.118c0.185,0.023,0.312,0.137,0.285,0.252l-0.941,3.904
				C134.002,232.236,133.829,232.311,133.645,232.287z"/>
			<path fill="#263238" d="M161.154,235.814l-0.924-0.119c-0.184-0.023-0.312-0.137-0.284-0.25l0.941-3.906
				c0.027-0.113,0.2-0.188,0.384-0.164l0.924,0.118c0.184,0.023,0.312,0.136,0.284,0.251l-0.941,3.904
				C161.512,235.764,161.338,235.838,161.154,235.814z"/>
			<path fill="#263238" d="M147.399,234.051l-0.923-0.119c-0.184-0.023-0.312-0.137-0.285-0.25l0.941-3.906
				c0.027-0.114,0.2-0.188,0.384-0.164l0.924,0.117c0.184,0.024,0.312,0.137,0.284,0.252l-0.941,3.904
				C147.757,234,147.583,234.074,147.399,234.051z"/>
			
				<ellipse transform="matrix(-0.982 0.1888 -0.1888 -0.982 340.0682 276.0512)" fill="#263238" cx="156.888" cy="154.221" rx="0.807" ry="1.235"/>
			
				<ellipse transform="matrix(-0.9819 0.1894 -0.1894 -0.9819 354.8665 271.6222)" fill="#263238" cx="164.457" cy="152.764" rx="0.807" ry="1.235"/>
			<path fill="#263238" d="M164.038,151.626l1.52-0.772C165.557,150.854,164.974,152.268,164.038,151.626z"/>
			<path fill="#FF5652" d="M161.664,154.42c0,0,1.691,2.664,3.209,3.814c-0.725,0.996-2.301,0.908-2.301,0.908L161.664,154.42z"/>
			<path fill="#263238" d="M156.938,161.842c-0.051,0.059-0.066,0.145-0.03,0.22c0.048,0.1,0.168,0.142,0.268,0.093
				c2.687-1.3,4.863-0.029,4.885-0.018c0.095,0.058,0.22,0.023,0.275-0.068c0.057-0.094,0.026-0.217-0.068-0.273
				c-0.096-0.059-2.377-1.398-5.266-0.001C156.976,161.807,156.955,161.822,156.938,161.842z"/>
			<path fill="#263238" d="M153.492,152.31c0.057-0.037,0.104-0.091,0.136-0.155c0.789-1.602,2.251-1.796,2.266-1.798
				c0.219-0.026,0.376-0.226,0.35-0.446c-0.026-0.219-0.226-0.375-0.445-0.35c-0.078,0.01-1.911,0.252-2.89,2.24
				c-0.098,0.197-0.016,0.438,0.182,0.535C153.225,152.402,153.377,152.387,153.492,152.31z"/>
			<path fill="#263238" d="M165.912,147.244c0.018-0.018,0.034-0.037,0.048-0.058c0.125-0.183,0.079-0.432-0.104-0.558
				c-1.826-1.255-3.543-0.57-3.615-0.541c-0.205,0.085-0.302,0.318-0.218,0.523c0.084,0.204,0.317,0.301,0.521,0.219
				c0.064-0.025,1.405-0.539,2.858,0.459C165.564,147.4,165.778,147.377,165.912,147.244z"/>
			<path fill="#263238" d="M156.468,153.082l1.52-0.773C157.988,152.309,157.404,153.725,156.468,153.082z"/>
			<path fill="#A41CF9" d="M104.106,293.47c-2.914,0-5.291-2.349-5.319-5.269c-0.137-14.206,4.595-26.195,13.683-34.673
				c11.188-10.438,28.645-15.285,49.163-13.665c14.39,1.142,23.618-2.368,34.301-6.431c1.756-0.667,3.531-1.342,5.351-2.005
				c2.756-1.009,5.813,0.418,6.819,3.179c1.005,2.761-0.418,5.813-3.179,6.819c-1.771,0.645-3.499,1.303-5.209,1.952
				c-10.886,4.141-22.141,8.415-38.923,7.093c-17.507-1.391-32.087,2.462-41.065,10.838c-6.943,6.478-10.409,15.491-10.3,26.789
				c0.028,2.938-2.331,5.344-5.269,5.372C104.142,293.47,104.124,293.47,104.106,293.47z"/>
			<g>
				<g>
					<path fill="#407BFF" d="M205.737,256.773l21.415-7.844l-13.766-37.581l-21.415,7.845c-3.701,1.355-5.62,5.492-4.264,9.193
						l8.835,24.123C197.899,256.211,202.036,258.129,205.737,256.773z"/>
					<path opacity="0.7" fill="#FFFFFF" d="M205.737,256.773l21.415-7.844l-13.766-37.581l-21.415,7.845
						c-3.701,1.355-5.62,5.492-4.264,9.193l8.835,24.123C197.899,256.211,202.036,258.129,205.737,256.773z"/>
				</g>
				<path opacity="0.2" fill="#407BFF" d="M203.835,214.844l9.552-3.498l13.767,37.586l-9.551,3.498
					c-0.627-0.598-1.113-1.338-1.428-2.196l-12.011-32.79C203.85,216.584,203.743,215.705,203.835,214.844z"/>
				
					<rect x="232.177" y="223.532" transform="matrix(0.3439 0.939 -0.939 0.3439 364.8793 -74.1544)" fill="#407BFF" width="6.656" height="1"/>
				<path fill="#407BFF" d="M232.454,217.158l-3.378-9.222c-1.167-3.188-4.239-5.33-7.644-5.33c-0.949,0-1.885,0.166-2.78,0.494
					l-6.084,2.229l-0.344-0.939l6.084-2.229c1.007-0.368,2.058-0.555,3.124-0.555c3.822,0,7.271,2.405,8.583,5.986l3.378,9.222
					L232.454,217.158z"/>
				<path fill="#A41CF9" d="M226.731,252.74l8.908-3.263c2.905-1.064,4.411-4.312,3.347-7.216l-12.258-33.466
					c-1.064-2.905-4.311-4.411-7.216-3.347l-8.908,3.262c-2.905,1.064-4.411,4.313-3.347,7.217l12.258,33.465
					C220.579,252.299,223.827,253.805,226.731,252.74z"/>
				<circle fill="#263238" cx="219.388" cy="218.9" r="3"/>
				<circle fill="#263238" cx="226.855" cy="239.289" r="3"/>
			</g>
			<path fill="#FF8B7B" d="M142.034,235.848l-0.085-0.086c-1.563-1.56-3.213-3.26-4.697-4.982c-1.515-1.716-2.954-3.477-4.278-5.277
				c-1.335-1.793-2.524-3.65-3.558-5.512c-0.775-1.417-1.423-2.855-1.921-4.273c0.597-1.991,1.233-3.971,1.993-5.92
				c0.873-2.305,1.857-4.578,2.925-6.814c1.069-2.235,2.209-4.442,3.436-6.596c0.606-1.08,1.234-2.145,1.879-3.191l0.984-1.544
				c0.313-0.499,0.68-1.045,0.94-1.429l0.112-0.164c1.501-2.211,0.997-5.231-1.173-6.829c-2.222-1.638-5.351-1.163-6.989,1.06
				c-0.502,0.683-0.879,1.217-1.283,1.815c-0.4,0.584-0.764,1.177-1.14,1.766c-0.733,1.183-1.44,2.374-2.119,3.579
				c-1.347,2.416-2.578,4.893-3.666,7.436c-0.566,1.261-1.056,2.56-1.572,3.843c-0.456,1.313-0.951,2.604-1.349,3.94
				c-0.881,2.632-1.515,5.359-2.096,8.088l-0.051,0.238c-0.148,0.707-0.107,1.463,0.159,2.19c0.979,2.679,2.332,5.059,3.825,7.237
				c1.497,2.176,3.186,4.133,4.942,5.966c1.779,1.814,3.64,3.501,5.591,5.055c1.983,1.544,3.932,2.979,6.162,4.304
				c0.956,0.568,2.21,0.442,3.032-0.381C143.008,238.394,143.006,236.818,142.034,235.848z"/>
			<path fill="#FF8B7B" d="M153.619,240.816l-0.125-0.26c-0.846-1.754-2.463-3.012-4.372-3.397l-7.595-1.536l-3.705,1.852
				c0.396,4.151,6.338,6.641,6.338,6.641l1.688,1.932c1.177,1.346,3.181,1.584,4.64,0.549l2.008-1.424
				C153.882,244.188,154.357,242.348,153.619,240.816z"/>
			<g>
				<g>
					<path fill="#407BFF" d="M135.192,178.651c-4.208,1.932-8.695,8.604-8.695,8.604l9.039,16.855c0,0,10.238-11.796,9.372-17.695
						C144.173,181.408,140.553,176.191,135.192,178.651z"/>
				</g>
				<g opacity="0.3">
					<path fill="#FFFFFF" d="M135.192,178.651c-4.208,1.932-8.695,8.604-8.695,8.604l9.039,16.855c0,0,10.238-11.796,9.372-17.695
						C144.173,181.408,140.553,176.191,135.192,178.651z"/>
				</g>
			</g>
		</g>
		<g>
			<path fill="#4772F9" d="M423.292,399.432c-8.812,0.001-17.473-1.814-21.668-7.292c-19.886-25.967-19.706-78.302-19.532-128.914
				c0.094-27.243,2.248-52.976-0.778-72.968c-1.784-11.786-7.961-19.881-14.286-24.061c-9.316-6.154-22.123-2.85-27.593-1.437
				c-2.844,0.736-5.745-0.976-6.481-3.821c-0.734-2.845,0.977-5.746,3.821-6.481c6.839-1.767,22.857-5.901,36.119,2.862
				c8.943,5.909,16.685,16.455,18.939,31.346c3.149,20.801,0.994,46.932,0.899,74.597c-0.168,48.829-0.342,99.321,17.339,122.408
				c1.426,1.862,7.015,3.528,16.249,3.053c0.816-0.041,1.62-0.097,2.406-0.166c-0.342-0.703-0.534-1.492-0.534-2.326
				c0-2.938,2.382-5.32,5.32-5.32c11.626,0,17.746,0.978,18.929,6.319c0.339,1.529,0.519,5.369-5.104,7.987
				C443.141,397.172,433.123,399.432,423.292,399.432z"/>
			<g>
				<g>
					<polygon fill="#FFC3BD" points="306.871,404.018 296.019,399.753 301.743,380.94 312.596,385.205 					"/>
					<path fill="#263238" d="M295.763,398.6l12.223,4.803c0.322,0.127,0.513,0.46,0.459,0.801l-1.195,7.615
						c-0.124,0.79-0.965,1.253-1.704,0.947c-3.069-1.267-7.871-3.363-11.764-4.893c-2.395-0.941-6.945-2.441-10.252-3.74
						c-3.234-1.271-2.454-4.74-0.983-4.504c6.592,1.058,9.117-0.064,11.747-1.048C294.768,398.404,295.292,398.414,295.763,398.6z"
						/>
					<g>
						<polygon opacity="0.2" points="312.597,385.211 301.74,380.944 298.794,390.644 309.651,394.91 						"/>
					</g>
					<path fill="#4772F9" d="M326.171,239.605c0,0-9.817,48.543-13.576,72.48c-4.214,26.832-15.368,75.84-15.368,75.84l14.43,5.67
						c0,0,20.608-50.174,23.481-74.479c8.646-19.742,25.85-77.868,25.85-77.868L326.171,239.605z"/>
					<polygon fill="#263238" points="296.534,388.014 312.37,394.236 315.078,389.439 297.369,382.1 					"/>
					<path fill="#407BFF" d="M292.654,398.807c-0.6-0.236-1.12-0.559-1.359-0.998c-0.189-0.348-0.188-0.73,0.001-1.139
						c0.142-0.303,0.365-0.385,0.527-0.401c1.052-0.106,2.976,2.455,3.192,2.747c0.048,0.064,0.053,0.152,0.011,0.222
						c-0.041,0.069-0.12,0.107-0.2,0.097C294.228,399.25,293.382,399.093,292.654,398.807z M292.124,396.715
						c-0.097-0.037-0.185-0.055-0.26-0.048c-0.061,0.007-0.138,0.031-0.204,0.173c-0.135,0.289-0.139,0.544-0.013,0.777
						c0.29,0.531,1.298,0.984,2.742,1.241C293.701,397.994,292.728,396.953,292.124,396.715z"/>
					<path fill="#407BFF" d="M294.78,399.321c-0.031-0.013-0.059-0.031-0.081-0.058c-0.641-0.763-1.539-3.109-1.027-3.922
						c0.093-0.146,0.318-0.376,0.786-0.256c0.301,0.079,0.539,0.264,0.701,0.553c0.621,1.107-0.083,3.455-0.114,3.555
						c-0.022,0.07-0.08,0.123-0.152,0.138C294.855,399.339,294.816,399.335,294.78,399.321z M294.445,395.502
						c-0.028-0.01-0.057-0.02-0.086-0.027c-0.254-0.065-0.319,0.037-0.347,0.082c-0.302,0.479,0.189,2.178,0.758,3.113
						c0.169-0.701,0.438-2.125,0.04-2.836C294.718,395.672,294.599,395.563,294.445,395.502z"/>
				</g>
				<path opacity="0.2" d="M347.338,269.029c-5.437,6.746-7.586,23.918-7.565,38.24c3.671-10.108,7.874-22.951,11.576-34.612
					L347.338,269.029z"/>
				<g>
					<polygon fill="#FFC3BD" points="372.168,405.829 360.508,405.829 358.956,386.227 370.616,386.227 					"/>
					<path fill="#263238" d="M359.848,404.85l13.133-0.001c0.346,0,0.646,0.241,0.721,0.579l1.672,7.523
						c0.173,0.781-0.44,1.52-1.24,1.506c-3.32-0.058-8.556-0.252-12.738-0.252c-2.573,0-7.356,0.268-10.909,0.268
						c-3.475,0-4.017-3.514-2.563-3.832c6.522-1.427,8.461-3.395,10.549-5.271C358.851,405.031,359.342,404.85,359.848,404.85z"/>
					<g>
						<polygon opacity="0.2" points="370.619,386.231 358.954,386.231 359.76,396.336 371.425,396.336 						"/>
					</g>
					<path fill="#4772F9" d="M340.291,240.224c0,0,6.46,54.085,7.819,73.559c1.891,27.095,9.198,80.597,9.198,80.597h15.504
						c0,0,1.663-54.64-1.145-78.953c3.863-21.203,2.641-73.578,2.641-73.578L340.291,240.224z"/>
					<polygon fill="#263238" points="356.694,394.715 373.709,394.715 374.475,389.26 355.309,388.905 					"/>
					<path fill="#407BFF" d="M357.03,406.179c-0.644,0-1.247-0.109-1.63-0.432c-0.303-0.255-0.443-0.611-0.415-1.06
						c0.021-0.334,0.199-0.492,0.344-0.566c0.94-0.484,3.667,1.196,3.975,1.389c0.069,0.043,0.105,0.123,0.092,0.203
						c-0.013,0.078-0.073,0.143-0.151,0.162C358.657,406.017,357.813,406.179,357.03,406.179z M355.772,404.426
						c-0.105,0-0.193,0.017-0.261,0.051c-0.054,0.027-0.117,0.08-0.126,0.236c-0.021,0.318,0.069,0.557,0.272,0.727
						c0.463,0.389,1.568,0.442,3.005,0.153C357.708,405.04,356.421,404.426,355.772,404.426z"/>
					<path fill="#407BFF" d="M359.198,405.881c-0.033,0-0.066-0.009-0.096-0.024c-0.875-0.476-2.57-2.331-2.39-3.274
						c0.032-0.172,0.159-0.467,0.638-0.525c0.309-0.037,0.598,0.048,0.854,0.258c0.983,0.804,1.186,3.246,1.194,3.35
						c0.005,0.074-0.029,0.145-0.091,0.184C359.274,405.869,359.236,405.881,359.198,405.881z M357.489,402.449
						c-0.03,0-0.06,0.001-0.09,0.006c-0.261,0.031-0.283,0.15-0.293,0.201c-0.106,0.559,0.973,1.959,1.844,2.621
						c-0.099-0.714-0.369-2.138-1-2.652C357.806,402.507,357.654,402.449,357.489,402.449z"/>
				</g>
				<g>
					<path fill="#FFC3BD" d="M345.641,165.628l-0.041-0.001l-9.343-0.121c-3.134-0.021-6.257-0.092-9.342-0.145
						c-0.939-0.02-1.862-0.063-2.79-0.098c0.051-0.055,0.098-0.11,0.149-0.166c0.658-0.697,1.315-1.419,1.999-2.107
						c0.335-0.355,0.674-0.707,1.015-1.048c0.317-0.343,0.708-0.722,0.925-0.997l0.852-1.074c0.969-1.238,1.363-2.903,0.921-4.539
						c-0.746-2.757-3.585-4.388-6.342-3.643l-1.851,0.5c-0.577,0.174-1.145,0.357-1.708,0.546c-1.119,0.396-2.226,0.82-3.315,1.296
						c-2.176,0.95-4.282,2.088-6.35,3.381c-2.048,1.307-4.048,2.813-5.949,4.523c-1.912,1.7-3.674,3.713-5.308,5.913
						c-0.375,0.513-0.73,1.11-0.995,1.718c-1.936,4.434,0.089,9.598,4.524,11.533l0.908,0.396c2.499,1.092,4.444,1.611,6.361,2.109
						c1.897,0.486,3.701,0.802,5.466,1.101c1.766,0.29,3.505,0.544,5.221,0.757c1.718,0.192,3.426,0.363,5.119,0.506
						c3.389,0.307,6.749,0.45,10.098,0.554c3.372,0.076,6.635,0.097,10.11-0.06c5.465-0.258,9.881-4.735,9.953-10.277
						C356.002,170.429,351.396,165.702,345.641,165.628z"/>
					<path fill="#263238" d="M351.08,183.875c-8.066,9.207-27.487,5.764-27.487,5.764l1.064-22.924c0,0,9.807-2.318,20.267-2.341
						C356.318,164.35,357.541,176.501,351.08,183.875z"/>
				</g>
				<path fill="#263238" d="M329.543,176.835c-0.485,3.694-0.955,8.677-1.31,15.379c-4.211,21.292-5.785,36.386-2.063,47.392
					c2.937,3.631,41.252,2.93,48.142,2.236c3.974-9.9,4.416-38.319,4.883-62.207c0.133-6.801-4.741-12.669-11.443-13.826
					c-8.629-1.488-17.333-1.855-26.125-0.881C335.341,165.625,330.367,170.563,329.543,176.835z"/>
				<path opacity="0.2" d="M366.714,191.366c0.127,7.288,5.405,18.918,11.342,24.813c0.362-6.149,0.596-12.821,0.777-19.546
					L366.714,191.366z"/>
				<g>
					<path fill="#FFC3BD" d="M400.089,205.521l-0.337-0.807c-1.453-3.471-3.097-6.653-4.894-9.662c-1.782-3-3.695-5.83-5.693-8.564
						c-1.982-2.738-4.095-5.336-6.256-7.88c-1.095-1.261-2.185-2.521-3.336-3.734l-1.734-1.823l-1.873-1.857
						c-3.893-3.842-10.177-4.052-14.297-0.346c-4.276,3.847-4.625,10.432-0.778,14.709l0.296,0.328l5.877,6.533
						c1.983,2.223,3.905,4.486,5.802,6.732c0.921,1.132,1.871,2.262,2.738,3.407c0.924,1.127,1.768,2.267,2.629,3.405
						c1.237,1.729,2.434,3.443,3.502,5.135c-0.137,0.775-0.356,1.646-0.613,2.533c-0.663,2.242-1.523,4.702-2.528,7.143
						c-0.969,2.469-2.06,4.965-3.162,7.486c-1.089,2.512-2.286,5.093-3.334,7.59l-0.094,0.22c-0.767,1.831-0.457,4.021,0.972,5.581
						c1.96,2.143,5.285,2.289,7.427,0.329c2.291-2.097,4.279-4.22,6.271-6.478c1.967-2.256,3.835-4.611,5.624-7.107
						c0.894-1.246,1.737-2.549,2.577-3.891c0.842-1.338,1.653-2.74,2.394-4.25c0.749-1.514,1.473-3.086,2.103-4.924
						c0.623-1.848,1.17-3.89,1.277-6.714C400.684,207.599,400.508,206.522,400.089,205.521z"/>
					<path fill="#263238" d="M368.432,165.944c13.493,2.302,22.278,20.566,22.278,20.566l-16.259,17.438
						c0,0-9.375-9.543-14.971-18.379C353.382,175.945,358.767,164.296,368.432,165.944z"/>
					<path fill="#263238" d="M343.786,137.146c-2.252-3.782-2.979-9.022,1.146-14.305c-2.728,0.429-4.125-1.965-4.125-1.965
						s5.988-5.607,16.088-5.602c12.108,0.007,13.012,4.67,12.598,7.862c8.276,0.528,14.316,22.067-6.674,25.87
						C350.814,136.32,343.786,137.146,343.786,137.146z"/>
					<path fill="#263238" d="M368.726,123.492c0,0,3.374-3.439-0.82-7.604c1.603,0.491,3.404,1.743,3.941,3.921
						C372.444,122.232,370.809,124.171,368.726,123.492z"/>
					<path fill="#FFC3BD" d="M364.086,146.341c-0.32,6.626-0.914,14.167,0.195,19.464c-1.718,2.705-6.117,5.824-14.007,6.524
						c-2.808-1.591-6.504-5.476-5.216-7.478c3.355-2.15,4.773-8.664,3.81-13.529L364.086,146.341z"/>
					<path opacity="0.2" d="M360.25,147.592l-11.385,3.729c0.384,1.963,0.395,4.179,0.044,6.284c3.4-0.11,8.116-2.676,9.882-5.078
						C360.271,150.52,360.469,148.863,360.25,147.592z"/>
					<path fill="#FFC3BD" d="M367.415,135.838c-2.11,8.131-2.932,12.998-7.912,16.412c-7.492,5.135-16.916-0.615-17.278-9.213
						c-0.326-7.74,3.18-19.738,11.875-21.443C362.665,119.915,369.525,127.705,367.415,135.838z"/>
					<path fill="#263238" d="M365.728,124.201c-3.564,2.542-7.998,13.301,1.046,17.616
						C374.814,134.724,372.721,124.201,365.728,124.201z"/>
					<path fill="#263238" d="M367.794,125.494c1.522-7.086-16.341-10.74-22.007-2.475
						C343.872,127.971,366.71,132.402,367.794,125.494z"/>
					<path fill="#263238" d="M354.459,144.47c-0.001-0.001-0.002-0.001-0.004-0.002c-3.084-1.368-5.586-1.454-5.88-1.484
						c-0.128-0.003-0.226,0.094-0.211,0.22c0.013,0.126,0.134,0.233,0.264,0.233c0.173,0.022,2.66,0.104,5.641,1.425
						c0.121,0.051,0.26,0,0.308-0.109C354.626,144.644,354.571,144.52,354.459,144.47z"/>
					<path fill="#FFC3BD" d="M369.363,144.729c-1.537,1.664-3.698,2.463-5.56,2.508c-2.799,0.066-3.513-2.603-2.16-4.885
						c1.218-2.055,4.141-4.565,6.675-3.543C370.814,139.815,371.12,142.824,369.363,144.729z"/>
					
						<ellipse transform="matrix(0.9816 0.191 -0.191 0.9816 32.4011 -65.0589)" fill="#263238" cx="353.689" cy="135.549" rx="0.808" ry="1.236"/>
					
						<ellipse transform="matrix(0.9816 0.1909 -0.1909 0.9816 31.9568 -63.603)" fill="#263238" cx="346.114" cy="134.072" rx="0.808" ry="1.236"/>
					<path fill="#ED847E" d="M349.25,135.029c0,0-2.278,3.569-4.319,5.107c0.97,1.338,3.208,1.074,3.208,1.074L349.25,135.029z"/>
					<path fill="#263238" d="M353.391,131.812c0.142-0.036,0.298,0.006,0.401,0.124c1.181,1.342,2.646,1.146,2.661,1.144
						c0.219-0.032,0.423,0.12,0.455,0.339s-0.11,0.424-0.339,0.455c-0.077,0.012-1.913,0.257-3.378-1.408
						c-0.146-0.166-0.13-0.42,0.036-0.565C353.276,131.855,353.333,131.826,353.391,131.812z"/>
					<path fill="#263238" d="M344.566,129.594c-0.079-0.021-0.152-0.068-0.206-0.138c-0.138-0.174-0.108-0.426,0.066-0.563
						c1.742-1.373,3.502-0.805,3.577-0.775c0.21,0.071,0.322,0.299,0.252,0.508c-0.071,0.21-0.308,0.319-0.506,0.253l0,0
						c-0.062-0.016-1.433-0.452-2.826,0.645C344.818,129.605,344.686,129.627,344.566,129.594z"/>
					<path fill="#FFC3BD" d="M376.852,235.564l-8.593-0.062l4.44,9.858c0,0,7.327-1.572,6.927-5.547L376.852,235.564z"/>
					<path fill="#FFC3BD" d="M363.892,242.266l1.411,2.779c0.782,1.539,2.608,2.228,4.211,1.588l3.185-1.271l-4.44-9.858
						l-3.413,2.598C363.563,239.076,363.162,240.83,363.892,242.266z"/>
				</g>
			</g>
			<path fill="#4772F9" d="M311.464,228.297c-1.337,0-2.674-0.5-3.707-1.504c-2.107-2.049-2.156-5.416-0.108-7.523
				c3.825-3.938,7.273-6.98,10.314-9.665c7.341-6.478,9.867-8.967,9.627-13.852c-0.11-2.243-0.98-5.441-1.9-8.827
				c-2.188-8.044-4.666-17.16-0.424-24.463c2.282-3.929,6.154-6.621,11.51-8.005c2.839-0.732,5.746,0.976,6.481,3.821
				c0.734,2.845-0.976,5.746-3.821,6.481c-3.764,0.972-4.671,2.534-4.97,3.047c-2.008,3.457-0.068,10.593,1.49,16.326
				c1.077,3.96,2.094,7.699,2.261,11.096c0.504,10.246-5.549,15.589-13.213,22.353c-2.898,2.559-6.184,5.457-9.725,9.102
				C314.236,227.758,312.851,228.297,311.464,228.297z"/>
			<path fill="#FFC3BD" d="M323.128,151.897l8.326-2.125l-1.94,10.638c0,0-7.49,0.234-8.058-3.721L323.128,151.897z"/>
			<path fill="#FFC3BD" d="M337.291,155.414l-0.641,2.772c-0.407,1.76-2.089,2.919-3.878,2.673l-3.256-0.449l1.94-10.638l3.819,1.65
				C336.821,152.092,337.67,153.771,337.291,155.414z"/>
			<g>
				<path fill="#263238" d="M275.352,243.969l-0.234-0.233c-1.006-1.007-1.006-2.652,0-3.659l29.497-29.496
					c1.006-1.007,2.652-1.007,3.659,0l0.234,0.233c1.006,1.007,1.006,2.652,0,3.658l-29.498,29.497
					C278.004,244.976,276.358,244.976,275.352,243.969z"/>
				<path fill="#263238" d="M290.705,259.322l-0.234-0.234c-1.006-1.006-1.006-2.651,0-3.658l29.498-29.497
					c1.006-1.006,2.652-1.006,3.659,0l0.234,0.234c1.006,1.007,1.006,2.652,0,3.658l-29.498,29.497
					C293.357,260.328,291.711,260.328,290.705,259.322z"/>
				<g>
					<path fill="#407BFF" d="M333.472,229.27l-20.783,20.783l-28.301-28.301l20.784-20.783c2.787-2.787,7.348-2.787,10.135,0
						l18.165,18.165C336.259,221.921,336.259,226.482,333.472,229.27z"/>
					<path opacity="0.7" fill="#FFFFFF" d="M333.472,229.27l-20.783,20.783l-28.301-28.301l20.784-20.783
						c2.787-2.787,7.348-2.787,10.135,0l18.165,18.165C336.259,221.921,336.259,226.482,333.472,229.27z"/>
				</g>
				<path opacity="0.2" fill="#407BFF" d="M291.577,214.559l-7.193,7.192l28.304,28.304l7.193-7.192
					c-0.278-0.819-0.745-1.572-1.392-2.22l-24.693-24.692C293.149,215.303,292.397,214.837,291.577,214.559z"/>
				<path fill="#4772F9" d="M316.322,251.274l-0.509,0.509c-2.188,2.188-5.767,2.188-7.955,0l-25.201-25.201
					c-2.188-2.188-2.188-5.767,0-7.954l0.509-0.509c2.188-2.188,5.768-2.188,7.955,0l25.201,25.201
					C318.509,245.508,318.509,249.087,316.322,251.274z"/>
			</g>
		</g>
	</g>
</g>
<g id="Page_not_found">
</g>
</svg>
